# xmcd
#
# Track frame offsets:
#	150
#	14170
#	30916
#	46100
#	66413
#	84771
#	96871
#	113058
#	126317
#	140416
#	157476
#	171214
#	187482
#	197712
#
# Disc length: 2806 seconds
# Revision: 0
# Processed by: cddbd v1.5.2PL0 Copyright (c) Steve Scherf et al.
# Submitted via: dBpowerAMP V12.0
#
DISCID=c90af40e
DTITLE=Sugar in The Gourd - Sugar in The Gourd
DYEAR=2013
DGENRE=Country
TTITLE0=Train of Sorrow
TTITLE1=Step Up Into Life
TTITLE2=Honky Tonkin'
TTITLE3=Pour my Glass
TTITLE4=Ball and Chain
TTITLE5=Walk Your Journey
TTITLE6=Devil of an Angel
TTITLE7=Nothin' Doin'
TTITLE8=Too Much Smoke
TTITLE9=Wedding Day
TTITLE10=Dance of The Woods
TTITLE11=Job Never Started
TTITLE12=Glory
TTITLE13=It's Hard to Say
EXTD=
EXTT0=
EXTT1=
EXTT2=
EXTT3=
EXTT4=
EXTT5=
EXTT6=
EXTT7=
EXTT8=
EXTT9=
EXTT10=
EXTT11=
EXTT12=
EXTT13=
PLAYORDER=
